<?xml version="1.0" encoding="UTF-8" standalone="no"?>
<!-- Created with Inkscape (http://www.inkscape.org/) -->

<svg
   width="150.151mm"
   height="150.34399mm"
   viewBox="0 0 150.151 150.34399"
   version="1.1"
   id="svg1"
   xml:space="preserve"
   inkscape:version="1.3.2 (091e20e, 2023-11-25, custom)"
   sodipodi:docname="logo_photo_marc.svg"
   xmlns:inkscape="http://www.inkscape.org/namespaces/inkscape"
   xmlns:sodipodi="http://sodipodi.sourceforge.net/DTD/sodipodi-0.dtd"
   xmlns:xlink="http://www.w3.org/1999/xlink"
   xmlns="http://www.w3.org/2000/svg"
   xmlns:svg="http://www.w3.org/2000/svg"><sodipodi:namedview
     id="namedview1"
     pagecolor="#ffffff"
     bordercolor="#000000"
     borderopacity="0.25"
     inkscape:showpageshadow="2"
     inkscape:pageopacity="0.0"
     inkscape:pagecheckerboard="0"
     inkscape:deskcolor="#d1d1d1"
     inkscape:document-units="mm"
     inkscape:zoom="1.0242632"
     inkscape:cx="172.80715"
     inkscape:cy="192.82153"
     inkscape:window-width="1920"
     inkscape:window-height="1009"
     inkscape:window-x="1912"
     inkscape:window-y="-8"
     inkscape:window-maximized="1"
     inkscape:current-layer="g8"
     showguides="true" /><defs
     id="defs1"><linearGradient
       id="linearGradient1"
       inkscape:collect="always"><stop
         style="stop-color:#7b7b7b;stop-opacity:1;"
         offset="0.92105263"
         id="stop1" /><stop
         style="stop-color:#000000;stop-opacity:1;"
         offset="1"
         id="stop2" /></linearGradient><rect
       x="564.30804"
       y="645.34192"
       width="403.21667"
       height="196.23862"
       id="rect2" /><radialGradient
       inkscape:collect="always"
       xlink:href="#linearGradient1"
       id="radialGradient3"
       cx="344.50974"
       cy="262.81226"
       fx="344.50974"
       fy="262.81226"
       r="259.1828"
       gradientTransform="matrix(1.097939,0,0,1.0950924,-8.3568348,-4.4889083)"
       gradientUnits="userSpaceOnUse" /></defs><g
     inkscape:label="Capa 1"
     inkscape:groupmode="layer"
     id="layer1"
     transform="translate(-42.371639,-86.738381)"><g
       style="clip-rule:evenodd;fill-rule:evenodd;image-rendering:optimizeQuality;shape-rendering:geometricPrecision;text-rendering:geometricPrecision"
       id="g8"
       transform="matrix(0.26458333,0,0,0.26458333,19.795552,86.874454)"><path
         id="path1"
         d="M 85.326943,-0.51429106 V 192.11786 H 136.72816 V 50.510559 H 282.09134 V -0.51429106 Z m 372.358477,0 V 50.510559 H 603.05951 V 192.11786 h 51.40121 V -0.51429106 Z M 434.43358,203.69761 c -0.008,0.031 -0.0187,0.0642 -0.0261,0.0951 0.28723,0.15392 0.67,0.33794 1.37532,0.64043 0.24118,0.10552 0.52532,0.0461 0.78684,0.067 -0.70385,-0.32779 -1.41733,-0.5785 -2.13599,-0.80271 z M 85.326943,374.51175 V 567.14392 H 282.09134 V 516.11907 H 136.72816 V 374.51175 Z m 517.732567,0 V 516.11907 H 457.68542 v 51.02485 h 196.7753 V 374.51175 Z"
         style="fill:url(#radialGradient3);stroke-width:1.11186" /><g
         id="g11"
         transform="matrix(1.6628026,0,0,1.4539914,285.43514,191.00893)"><polygon
           points="29.761,93.893 29.761,96.18 59.438,96.18 59.438,90.473 43.545,90.473 50.939,76.348 46.601,76.348 55.943,62.221 51.605,62.221 61.924,48.094 71.93,62.221 67.592,62.221 76.934,76.348 72.596,76.348 79.992,90.473 64.309,90.473 64.309,96.18 97.424,96.18 69.633,28.282 64.85,46.545 59.213,22.838 52.795,42.094 43.54,8.455 32.218,56.082 25.511,42.129 2.424,96.18 27.187,96.18 27.187,93.893 18.789,93.893 22.697,86.428 20.404,86.428 25.341,78.965 23.048,78.965 28.5,71.5 33.788,78.965 31.495,78.965 36.432,86.428 34.14,86.428 38.047,93.893 "
           id="polygon1"
           transform="matrix(1.3028449,0,0,1.3597502,-11.889912,-21.171378)"
           style="fill:#c87137" /></g><g
         id="g12"
         transform="matrix(2.9863697,0,0,2.8822043,194.8443,117.63849)"
         style="fill:#1a1a1a"><path
           class="st0"
           d="m 58.488608,10.262535 c 26.339556,0 47.694472,20.964372 47.694472,46.822228 0,25.857856 -21.354916,46.822227 -47.694472,46.822227 -26.339557,0 -47.69447,-20.963294 -47.69447,-46.822227 0,-25.858934 21.354913,-46.822228 47.69447,-46.822228 z m 31.489988,15.90921 C 72.58834,9.0995242 44.389973,9.0995242 26.999718,26.171745 9.608364,43.243966 9.608364,70.92556 26.99862,87.997781 44.388875,105.07 72.587242,105.07 89.977498,87.997781 107.36885,70.92556 107.36885,43.243966 89.978596,26.171745 Z"
           id="path1-6"
           style="stroke-width:1.08785;fill:#1a1a1a" /><text
           xml:space="preserve"
           style="font-size:16.3609px;font-family:'MV Boli';-inkscape-font-specification:'MV Boli';white-space:pre;clip-rule:evenodd;fill:#1a1a1a;fill-rule:evenodd;stroke-width:1511.81;image-rendering:optimizeQuality;shape-rendering:geometricPrecision;text-rendering:geometricPrecision"
           id="text12"
           transform="matrix(0.67129338,-0.76797906,0.71533877,0.67129338,-22.71725,62.199221)"
           inkscape:transform-center-x="1.3374467"
           inkscape:transform-center-y="-11.859638"><textPath
             xlink:href="#path1-6"
             id="textPath12"
             style="font-style:normal;font-variant:normal;font-weight:normal;font-stretch:normal;font-size:16.3609px;font-family:Mistral;-inkscape-font-specification:Mistral;fill:#1a1a1a;fill-opacity:1">PHOTOGRAPHY</textPath></text><text
           xml:space="preserve"
           style="font-size:16.3609px;font-family:'MV Boli';-inkscape-font-specification:'MV Boli';white-space:pre;clip-rule:evenodd;fill:#1a1a1a;fill-rule:evenodd;stroke-width:1511.81;image-rendering:optimizeQuality;shape-rendering:geometricPrecision;text-rendering:geometricPrecision"
           id="text12-3"
           transform="matrix(0.67129338,-0.76797906,0.71533877,0.67129338,-23.770976,152.68865)"
           inkscape:transform-center-x="1.414238"
           inkscape:transform-center-y="-2.6238061"><textPath
             xlink:href="#path1-6"
             id="textPath12-8" /></text><ellipse
           style="display:none;fill:#1a1a1a;fill-rule:evenodd;stroke-width:531.941"
           id="path13"
           cx="-131.05424"
           cy="58.498711"
           rx="20.596121"
           ry="24.558493"
           transform="scale(-1,1)" /></g><text
         xml:space="preserve"
         style="font-size:48px;font-family:Mistral;-inkscape-font-specification:Mistral;letter-spacing:2px;word-spacing:5px;writing-mode:tb-rl;fill:#000000;fill-opacity:1;fill-rule:evenodd;stroke-width:1511.81"
         x="-454.51859"
         y="307.69281"
         id="text18"
         transform="rotate(-91.359193)"
         inkscape:transform-center-x="-0.51663153"
         inkscape:transform-center-y="-1.0332631"><tspan
           sodipodi:role="line"
           id="tspan18"
           x="-454.51859"
           y="307.69281">MARC</tspan></text></g></g><style
     type="text/css"
     id="style1">
	.st0{fill-rule:evenodd;clip-rule:evenodd;}
</style></svg>
